<svg width="16" height="16" viewBox="0 0 16 16" fill="none" xmlns="http://www.w3.org/2000/svg">
<path d="M0.666667 5.66667C1.03333 5.66667 1.33333 5.36667 1.33333 5V2.73333C1.33333 1.96667 1.96667 1.33333 2.73333 1.33333H5C5.36667 1.33333 5.66667 1.03333 5.66667 0.666667C5.66667 0.3 5.36667 0 5 0H2.73333C1.23333 0 0 1.23333 0 2.73333V5C0 5.36667 0.3 5.66667 0.666667 5.66667Z" fill="#1E88E5"/>
<path d="M5 14.6663H2.73333C1.96667 14.6663 1.33333 14.033 1.33333 13.2663V10.9997C1.33333 10.633 1.03333 10.333 0.666667 10.333C0.3 10.333 0 10.633 0 10.9997V13.2663C0 14.7663 1.23333 15.9997 2.73333 15.9997H5C5.36667 15.9997 5.66667 15.6997 5.66667 15.333C5.66667 14.9663 5.36667 14.6663 5 14.6663Z" fill="#1E88E5"/>
<path d="M15.3334 10.333C14.9667 10.333 14.6667 10.633 14.6667 10.9997V13.2663C14.6667 14.033 14.0334 14.6663 13.2667 14.6663H11C10.6334 14.6663 10.3334 14.9663 10.3334 15.333C10.3334 15.6997 10.6334 15.9997 11 15.9997H13.2667C14.7667 15.9997 16 14.7663 16 13.2663V10.9997C16 10.633 15.7 10.333 15.3334 10.333Z" fill="#1E88E5"/>
<path d="M13.2667 0H11C10.6334 0 10.3334 0.3 10.3334 0.666667C10.3334 1.03333 10.6334 1.33333 11 1.33333H13.2667C14.0334 1.33333 14.6667 1.96667 14.6667 2.73333V5C14.6667 5.36667 14.9667 5.66667 15.3334 5.66667C15.7 5.66667 16 5.36667 16 5V2.73333C16 1.23333 14.7667 0 13.2667 0Z" fill="#1E88E5"/>
<path d="M15.3333 7.33301H0.666667C0.3 7.33301 0 7.63301 0 7.99967C0 8.36634 0.3 8.66634 0.666667 8.66634H15.3333C15.7 8.66634 16 8.36634 16 7.99967C16 7.63301 15.7 7.33301 15.3333 7.33301Z" fill="#1E88E5"/>
</svg>
