<svg width="14" height="14" viewBox="0 0 14 14" fill="none" xmlns="http://www.w3.org/2000/svg">
<path d="M1.5836 5.56868C1.58622 5.67038 1.56786 5.7716 1.5296 5.8663C1.49135 5.96101 1.43397 6.04729 1.36086 6.12011C1.28775 6.19293 1.20036 6.2508 1.10388 6.29029C1.00739 6.32979 0.903769 6.35014 0.799074 6.3501C0.694378 6.35007 0.590758 6.32967 0.4943 6.29011C0.397842 6.25056 0.310504 6.19262 0.23744 6.11975C0.164376 6.04689 0.107041 5.96055 0.0688517 5.86582C0.0306619 5.7711 0.012387 5.6699 0.0150717 5.5682C0.020319 5.36942 0.105286 5.18051 0.251845 5.04175C0.398403 4.90298 0.594939 4.82533 0.799565 4.8254C1.00419 4.82546 1.2007 4.90322 1.34716 5.04208C1.49363 5.18093 1.57848 5.3699 1.5836 5.56868ZM1.5836 7.94032C1.57473 8.13666 1.48823 8.32209 1.34213 8.45797C1.19602 8.59385 1.00156 8.6697 0.799319 8.6697C0.597079 8.6697 0.402651 8.59385 0.256544 8.45797C0.110437 8.32209 0.0239384 8.13666 0.0150717 7.94032C0.0202538 7.74154 0.105148 7.55259 0.251661 7.41378C0.398173 7.27497 0.594694 7.19728 0.799319 7.19728C1.00394 7.19728 1.20047 7.27497 1.34698 7.41378C1.49349 7.55259 1.57842 7.74154 1.5836 7.94032ZM1.5836 10.3119C1.58618 10.4137 1.56776 10.515 1.52945 10.6097C1.49114 10.7045 1.43371 10.7908 1.36052 10.8636C1.28734 10.9365 1.19991 10.9944 1.10336 11.0339C1.0068 11.0733 0.903068 11.0937 0.798306 11.0936C0.693544 11.0935 0.589854 11.0731 0.493348 11.0335C0.396842 10.9939 0.309482 10.9359 0.236396 10.863C0.163309 10.79 0.105991 10.7036 0.0678074 10.6088C0.0296237 10.514 0.0113396 10.4128 0.0140582 10.311C0.0193715 10.1121 0.10444 9.92305 0.251138 9.78423C0.397837 9.64542 0.594561 9.56781 0.799319 9.56794C1.00408 9.56807 1.20068 9.64593 1.34719 9.78492C1.49371 9.92391 1.57855 10.113 1.5836 10.3119ZM4.04332 3.16089C4.04332 3.36282 3.96076 3.55647 3.81382 3.69925C3.66689 3.84203 3.46761 3.92226 3.25981 3.92226C3.05201 3.92226 2.85273 3.84203 2.70579 3.69925C2.55885 3.55647 2.4763 3.36282 2.4763 3.16089C2.4763 2.95896 2.55885 2.76528 2.70579 2.6225C2.85273 2.47972 3.05201 2.39952 3.25981 2.39952C3.46761 2.39952 3.66689 2.47972 3.81382 2.6225C3.96076 2.76528 4.04332 2.95896 4.04332 3.16089ZM4.04332 5.56868C4.04338 5.66866 4.02317 5.7677 3.98386 5.86009C3.94454 5.95249 3.8869 6.03644 3.81419 6.10719C3.74148 6.17793 3.65513 6.23409 3.5601 6.27241C3.46506 6.31074 3.36319 6.33049 3.2603 6.33055C3.15741 6.33062 3.05552 6.31098 2.96044 6.27277C2.86535 6.23457 2.77893 6.17856 2.70613 6.1079C2.63333 6.03725 2.57556 5.95334 2.53613 5.86099C2.49669 5.76864 2.47636 5.66965 2.4763 5.56966C2.47616 5.36774 2.55858 5.17403 2.70542 5.03115C2.85226 4.88828 3.05149 4.80795 3.25928 4.80782C3.46708 4.80769 3.66642 4.88777 3.81345 5.03047C3.96049 5.17316 4.04318 5.36675 4.04332 5.56868ZM4.04332 7.94032C4.04332 8.14238 3.9607 8.33617 3.81367 8.47904C3.66664 8.62192 3.46722 8.70217 3.25928 8.70217C3.05135 8.70217 2.85196 8.62192 2.70493 8.47904C2.5579 8.33617 2.47528 8.14238 2.47528 7.94032C2.47528 7.73827 2.5579 7.54448 2.70493 7.4016C2.85196 7.25873 3.05135 7.17848 3.25928 7.17848C3.46722 7.17848 3.66664 7.25873 3.81367 7.4016C3.9607 7.54448 4.04332 7.73827 4.04332 7.94032ZM4.04332 10.3119C4.04332 10.514 3.9607 10.7078 3.81367 10.8507C3.66664 10.9935 3.46722 11.0738 3.25928 11.0738C3.05135 11.0738 2.85196 10.9935 2.70493 10.8507C2.5579 10.7078 2.47528 10.514 2.47528 10.3119C2.47528 10.1099 2.5579 9.91609 2.70493 9.77322C2.85196 9.63034 3.05135 9.55009 3.25928 9.55009C3.46722 9.55009 3.66664 9.63034 3.81367 9.77322C3.9607 9.91609 4.04332 10.1099 4.04332 10.3119ZM6.50252 5.56868C6.50255 5.66869 6.48232 5.76774 6.44296 5.86015C6.4036 5.95257 6.3459 6.03656 6.27314 6.10731C6.20039 6.17805 6.114 6.23417 6.01893 6.27247C5.92385 6.31078 5.82193 6.33052 5.719 6.33055C5.61608 6.33059 5.51416 6.3109 5.41905 6.27265C5.32395 6.23441 5.23754 6.17833 5.16474 6.10764C5.09194 6.03694 5.03419 5.95302 4.99477 5.86063C4.95535 5.76824 4.93504 5.6692 4.935 5.56919C4.935 5.36719 5.01757 5.17348 5.16456 5.03065C5.31154 4.88782 5.51089 4.80758 5.71876 4.80758C5.92662 4.80758 6.12598 4.88782 6.27296 5.03065C6.41994 5.17348 6.50252 5.36719 6.50252 5.56919V5.56868ZM6.50252 7.94032C6.50252 8.14238 6.41993 8.33617 6.2729 8.47904C6.12587 8.62192 5.92645 8.70217 5.71851 8.70217C5.51058 8.70217 5.31116 8.62192 5.16413 8.47904C5.0171 8.33617 4.93451 8.14238 4.93451 7.94032C4.93451 7.73827 5.0171 7.54448 5.16413 7.4016C5.31116 7.25873 5.51058 7.17848 5.71851 7.17848C5.92645 7.17848 6.12587 7.25873 6.2729 7.4016C6.41993 7.54448 6.50252 7.73827 6.50252 7.94032ZM6.50252 10.3119C6.50252 10.514 6.41993 10.7078 6.2729 10.8507C6.12587 10.9935 5.92645 11.0738 5.71851 11.0738C5.51058 11.0738 5.31116 10.9935 5.16413 10.8507C5.0171 10.7078 4.93451 10.514 4.93451 10.3119C4.93451 10.1099 5.0171 9.91609 5.16413 9.77322C5.31116 9.63034 5.51058 9.55009 5.71851 9.55009C5.92645 9.55009 6.12587 9.63034 6.2729 9.77322C6.41993 9.91609 6.50252 10.1099 6.50252 10.3119ZM8.99494 3.16089C8.99494 3.36282 8.91242 3.55647 8.76548 3.69925C8.61855 3.84203 8.41923 3.92226 8.21143 3.92226C8.00363 3.92226 7.80435 3.84203 7.65742 3.69925C7.51048 3.55647 7.42792 3.36282 7.42792 3.16089C7.42792 2.95896 7.51048 2.76528 7.65742 2.6225C7.80435 2.47972 8.00363 2.39952 8.21143 2.39952C8.41923 2.39952 8.61855 2.47972 8.76548 2.6225C8.91242 2.76528 8.99494 2.95896 8.99494 3.16089ZM8.99494 5.56868C8.99501 5.66866 8.97483 5.7677 8.93551 5.86009C8.8962 5.95249 8.83853 6.03644 8.76582 6.10719C8.69311 6.17793 8.60679 6.23409 8.51175 6.27241C8.41672 6.31074 8.31485 6.33049 8.21196 6.33055C8.10907 6.33062 8.00715 6.31098 7.91207 6.27277C7.81698 6.23457 7.73059 6.17856 7.65779 6.1079C7.58498 6.03725 7.52722 5.95334 7.48779 5.86099C7.44835 5.76864 7.42799 5.66965 7.42792 5.56966C7.42779 5.36774 7.51024 5.17403 7.65708 5.03115C7.80392 4.88828 8.00314 4.80795 8.21094 4.80782C8.41874 4.80769 8.61808 4.88777 8.76511 5.03047C8.91214 5.17316 8.99481 5.36675 8.99494 5.56868ZM8.99494 7.94032C8.99494 8.14238 8.91236 8.33617 8.76533 8.47904C8.6183 8.62192 8.41888 8.70217 8.21094 8.70217C8.00301 8.70217 7.80359 8.62192 7.65656 8.47904C7.50953 8.33617 7.42694 8.14238 7.42694 7.94032C7.42694 7.73827 7.50953 7.54448 7.65656 7.4016C7.80359 7.25873 8.00301 7.17848 8.21094 7.17848C8.41888 7.17848 8.6183 7.25873 8.76533 7.4016C8.91236 7.54448 8.99494 7.73827 8.99494 7.94032ZM8.99494 10.3119C8.99494 10.514 8.91236 10.7078 8.76533 10.8507C8.6183 10.9935 8.41888 11.0738 8.21094 11.0738C8.00301 11.0738 7.80359 10.9935 7.65656 10.8507C7.50953 10.7078 7.42694 10.514 7.42694 10.3119C7.42694 10.1099 7.50953 9.91609 7.65656 9.77322C7.80359 9.63034 8.00301 9.55009 8.21094 9.55009C8.41888 9.55009 8.6183 9.63034 8.76533 9.77322C8.91236 9.91609 8.99494 10.1099 8.99494 10.3119ZM11.4874 7.94032C11.4874 8.14238 11.4048 8.33617 11.2578 8.47904C11.1107 8.62192 10.9113 8.70217 10.7034 8.70217C10.4954 8.70217 10.296 8.62192 10.149 8.47904C10.002 8.33617 9.91937 8.14238 9.91937 7.94032C9.91937 7.73827 10.002 7.54448 10.149 7.4016C10.296 7.25873 10.4954 7.17848 10.7034 7.17848C10.9113 7.17848 11.1107 7.25873 11.2578 7.4016C11.4048 7.54448 11.4874 7.73827 11.4874 7.94032ZM11.4874 10.3119C11.4874 10.514 11.4048 10.7078 11.2578 10.8507C11.1107 10.9935 10.9113 11.0738 10.7034 11.0738C10.4954 11.0738 10.296 10.9935 10.149 10.8507C10.002 10.7078 9.91937 10.514 9.91937 10.3119C9.91937 10.1099 10.002 9.91609 10.149 9.77322C10.296 9.63034 10.4954 9.55009 10.7034 9.55009C10.9113 9.55009 11.1107 9.63034 11.2578 9.77322C11.4048 9.91609 11.4874 10.1099 11.4874 10.3119ZM14 5.56868C14 5.66866 13.9798 5.7677 13.9405 5.86009C13.9012 5.95249 13.8435 6.03644 13.7708 6.10719C13.6981 6.17793 13.6118 6.23409 13.5167 6.27241C13.4217 6.31074 13.3198 6.33049 13.2169 6.33055C13.114 6.33062 13.0122 6.31098 12.9171 6.27277C12.822 6.23457 12.7356 6.17856 12.6628 6.1079C12.59 6.03725 12.5322 5.95334 12.4928 5.86099C12.4533 5.76864 12.433 5.66965 12.4329 5.56966C12.4328 5.36774 12.5152 5.17403 12.6621 5.03115C12.8089 4.88828 13.0081 4.80795 13.2159 4.80782C13.4237 4.80769 13.6231 4.88777 13.7701 5.03047C13.9171 5.17316 13.9998 5.36675 14 5.56868ZM14 7.94032C14 8.14238 13.9173 8.33617 13.7703 8.47904C13.6233 8.62192 13.4239 8.70217 13.2159 8.70217C13.008 8.70217 12.8086 8.62192 12.6615 8.47904C12.5145 8.33617 12.4319 8.14238 12.4319 7.94032C12.4319 7.73827 12.5145 7.54448 12.6615 7.4016C12.8086 7.25873 13.008 7.17848 13.2159 7.17848C13.4239 7.17848 13.6233 7.25873 13.7703 7.4016C13.9173 7.54448 14 7.73827 14 7.94032ZM14 10.3119C14 10.514 13.9173 10.7078 13.7703 10.8507C13.6233 10.9935 13.4239 11.0738 13.2159 11.0738C13.008 11.0738 12.8086 10.9935 12.6615 10.8507C12.5145 10.7078 12.4319 10.514 12.4319 10.3119C12.4319 10.1099 12.5145 9.91609 12.6615 9.77322C12.8086 9.63034 13.008 9.55009 13.2159 9.55009C13.4239 9.55009 13.6233 9.63034 13.7703 9.77322C13.9173 9.91609 14 10.1099 14 10.3119ZM4.04332 0.760892C4.04338 0.860876 4.02317 0.959879 3.98386 1.05228C3.94454 1.14467 3.8869 1.22866 3.81419 1.2994C3.74148 1.37015 3.65513 1.42628 3.5601 1.4646C3.46506 1.50292 3.36319 1.52267 3.2603 1.52274C3.15741 1.5228 3.05552 1.50319 2.96044 1.46499C2.86535 1.42678 2.77893 1.37074 2.70613 1.30009C2.63333 1.22943 2.57556 1.14555 2.53613 1.0532C2.49669 0.960854 2.47636 0.86186 2.4763 0.761877C2.47616 0.55995 2.55858 0.366242 2.70542 0.223367C2.85226 0.0804914 3.05149 0.000129847 3.25928 1.57205e-07C3.46708 -0.000129532 3.66642 0.0799884 3.81345 0.22268C3.96049 0.365372 4.04318 0.558965 4.04332 0.760892ZM1.5836 3.16089C1.5835 3.26097 1.56312 3.36003 1.52361 3.45245C1.48411 3.54488 1.42623 3.62885 1.35334 3.69955C1.28044 3.77025 1.19394 3.8263 1.09875 3.86451C1.00356 3.90272 0.901573 3.92236 0.798582 3.92226C0.695592 3.92216 0.593621 3.90233 0.498508 3.86394C0.403395 3.82555 0.316983 3.76934 0.244228 3.6985C0.171472 3.62767 0.113794 3.54361 0.0744723 3.45111C0.035151 3.35861 0.0149726 3.25951 0.0150717 3.15943C0.0152719 2.95731 0.0980836 2.76352 0.245303 2.62074C0.392522 2.47796 0.592088 2.39786 0.800087 2.39806C1.00809 2.39825 1.20747 2.47872 1.35441 2.62178C1.50135 2.76484 1.5838 2.95877 1.5836 3.16089Z" fill="white"/>
<path d="M0 12.9745C0.000277277 12.7333 0.0882478 12.5 0.248352 12.3157C0.408457 12.1314 0.630413 12.008 0.875038 11.9673C1.11966 11.9266 1.37121 11.9712 1.5853 12.0932C1.79938 12.2152 1.96223 12.4068 2.04508 12.6341H1.75975C1.69443 12.5066 1.594 12.3992 1.46963 12.3239C1.34526 12.2485 1.2018 12.2081 1.05524 12.2072C0.851874 12.2159 0.65982 12.3005 0.519064 12.4434C0.378308 12.5863 0.299737 12.7764 0.299737 12.9742C0.299737 13.172 0.378308 13.3622 0.519064 13.5051C0.65982 13.648 0.851874 13.7326 1.05524 13.7412C1.36119 13.7412 1.62992 13.5666 1.75975 13.3148H2.04508C1.96223 13.5421 1.79938 13.7337 1.5853 13.8558C1.37121 13.9778 1.11966 14.0223 0.875038 13.9816C0.630413 13.9409 0.408457 13.8175 0.248352 13.6333C0.0882478 13.449 0.000277277 13.2156 0 12.9745Z" fill="white"/>
<path d="M2.25195 14.0001V11.9512H2.51864V14.0001H2.25195Z" fill="white"/>
<path d="M2.71997 11.9575H4.82642V12.2157H3.90454V13.9918H3.64185V12.2152H2.71997V11.9575Z" fill="white"/>
<path d="M6.791 11.9512H7.13472L6.21533 13.0221V13.9981H5.95365V13.0221L5.03076 11.9512H5.37497L6.08299 12.7747L6.791 11.9512Z" fill="white"/>
<path d="M7.33887 12.9745C7.33914 12.7333 7.42712 12.5 7.58722 12.3157C7.74732 12.1314 7.96928 12.008 8.2139 11.9673C8.45853 11.9266 8.71008 11.9712 8.92416 12.0932C9.13825 12.2152 9.3011 12.4068 9.38395 12.6341H9.09862C9.03325 12.5066 8.93275 12.3991 8.80828 12.3237C8.68381 12.2484 8.54026 12.2081 8.39361 12.2072C8.19025 12.2159 7.99816 12.3005 7.85741 12.4434C7.71665 12.5863 7.63811 12.7764 7.63811 12.9742C7.63811 13.172 7.71665 13.3622 7.85741 13.5051C7.99816 13.648 8.19025 13.7326 8.39361 13.7412C8.70007 13.7412 8.96879 13.5666 9.09862 13.3148H9.38395C9.30059 13.5416 9.1376 13.7325 8.92367 13.8541C8.70974 13.9756 8.45856 14.0199 8.2143 13.9793C7.97005 13.9386 7.74838 13.8156 7.58826 13.6318C7.42814 13.448 7.33983 13.2153 7.33887 12.9745Z" fill="white"/>
<path d="M9.58887 12.9746C9.58887 12.4089 10.0619 11.9526 10.6406 11.9526C10.9139 11.9609 11.1732 12.0721 11.3635 12.2629C11.5538 12.4537 11.6603 12.7089 11.6603 12.9746C11.6603 13.2403 11.5538 13.4956 11.3635 13.6864C11.1732 13.8771 10.9139 13.9884 10.6406 13.9966C10.3619 13.9959 10.0949 13.8879 9.89779 13.6964C9.70072 13.5049 9.58966 13.2454 9.58887 12.9746ZM9.85104 12.9746C9.85104 13.1781 9.93425 13.3732 10.0823 13.5171C10.2304 13.661 10.4312 13.7419 10.6406 13.7419C10.85 13.7419 11.0508 13.661 11.1989 13.5171C11.347 13.3732 11.4301 13.1781 11.4301 12.9746C11.4228 12.7759 11.3365 12.5877 11.1892 12.4496C11.0419 12.3115 10.8453 12.2343 10.6406 12.2343C10.4359 12.2343 10.2393 12.3115 10.092 12.4496C9.94475 12.5877 9.85834 12.7759 9.85104 12.9746Z" fill="white"/>
<path d="M14 12.5282V13.9966H13.7383V12.5282C13.7377 12.4432 13.7027 12.3618 13.6408 12.3017C13.5789 12.2417 13.4951 12.2078 13.4077 12.2074C13.3204 12.2082 13.2368 12.2422 13.1751 12.3022C13.1134 12.3622 13.0783 12.4433 13.0776 12.5282V13.9966H12.8159V12.5282C12.8159 12.4436 12.7815 12.3624 12.7203 12.3024C12.659 12.2423 12.5758 12.2082 12.4888 12.2074C12.4013 12.2075 12.3175 12.2414 12.2557 12.3015C12.1939 12.3616 12.1592 12.4432 12.1592 12.5282V13.9961H11.8965V12.5282C11.8965 12.2113 12.1622 11.9526 12.4888 11.9526C12.6724 11.9526 12.839 12.0353 12.9482 12.1678C13.0574 12.0353 13.2205 11.9526 13.4077 11.9526C13.7348 11.9526 14 12.2113 14 12.5282Z" fill="white"/>
</svg>
