<svg width="15" height="15" viewBox="0 0 15 15" fill="none" xmlns="http://www.w3.org/2000/svg">
<g clip-path="url(#clip0_502_415)">
<path d="M12.1875 15H2.8125C1.95125 15 1.25 14.2987 1.25 13.4375V1.5625C1.25 0.70125 1.95125 0 2.8125 0H12.1875C13.0487 0 13.75 0.70125 13.75 1.5625V13.4375C13.75 14.2987 13.0487 15 12.1875 15ZM2.8125 0.625C2.29562 0.625 1.875 1.04562 1.875 1.5625V13.4375C1.875 13.9544 2.29562 14.375 2.8125 14.375H12.1875C12.7044 14.375 13.125 13.9544 13.125 13.4375V1.5625C13.125 1.04562 12.7044 0.625 12.1875 0.625H2.8125Z" fill="#535353"/>
<path d="M5.31299 9.52539H4.06299C3.54611 9.52539 3.12549 9.10477 3.12549 8.58789V6.71289C3.12549 6.19602 3.54611 5.77539 4.06299 5.77539H5.31299C5.48549 5.77539 5.62549 5.91539 5.62549 6.08789C5.62549 6.26039 5.48549 6.40039 5.31299 6.40039H4.06299C3.89049 6.40039 3.75049 6.54039 3.75049 6.71289V8.58789C3.75049 8.76039 3.89049 8.90039 4.06299 8.90039H5.31299C5.48549 8.90039 5.62549 9.04039 5.62549 9.21289C5.62549 9.38539 5.48549 9.52539 5.31299 9.52539Z" fill="#535353"/>
<path d="M7.65576 9.52539H6.56201C6.38951 9.52539 6.24951 9.38539 6.24951 9.21289C6.24951 9.04039 6.38951 8.90039 6.56201 8.90039H7.65576C7.91451 8.90039 8.12451 8.69039 8.12451 8.43164C8.12451 8.17289 7.91451 7.96289 7.65576 7.96289H7.34326C6.74014 7.96289 6.24951 7.47227 6.24951 6.86914C6.24951 6.26602 6.74014 5.77539 7.34326 5.77539H8.43701C8.60951 5.77539 8.74951 5.91539 8.74951 6.08789C8.74951 6.26039 8.60951 6.40039 8.43701 6.40039H7.34326C7.08451 6.40039 6.87451 6.61039 6.87451 6.86914C6.87451 7.12789 7.08451 7.33789 7.34326 7.33789H7.65576C8.25888 7.33789 8.74951 7.82852 8.74951 8.43164C8.74951 9.03477 8.25888 9.52539 7.65576 9.52539Z" fill="#535353"/>
<path d="M10.625 9.52521C10.4869 9.52521 10.365 9.43458 10.3257 9.30271L9.38817 6.17771C9.3388 6.01271 9.43255 5.83833 9.59755 5.78833C9.76255 5.73958 9.93692 5.83271 9.98692 5.99771L10.625 8.12521L11.2632 5.99833C11.3125 5.83271 11.4863 5.73958 11.6525 5.78896C11.8182 5.83896 11.9119 6.01271 11.8619 6.17833L10.9244 9.30333C10.885 9.43458 10.7632 9.52521 10.625 9.52521Z" fill="#535353"/>
</g>
<defs>
<clipPath id="clip0_502_415">
<rect width="15" height="15" fill="white"/>
</clipPath>
</defs>
</svg>
