<svg width="15" height="15" viewBox="0 0 15 15" fill="none" xmlns="http://www.w3.org/2000/svg">
<path d="M14.5702 6.85542C14.3315 6.85542 14.1405 7.04863 14.1405 7.29014V11.2445C14.1405 12.3201 13.2746 13.1927 12.2146 13.1927H2.78544C1.7222 13.1927 0.859508 12.3168 0.859508 11.2445V7.22574C0.859508 6.98423 0.668506 6.79102 0.429754 6.79102C0.191002 6.79102 0 6.98423 0 7.22574V11.2445C0 12.7999 1.25106 14.0622 2.78544 14.0622H12.2146C13.7521 14.0622 15 12.7966 15 11.2445V7.29014C15 7.05185 14.809 6.85542 14.5702 6.85542Z" fill="#535353"/>
<path d="M5.07122 3.50677L7.07037 1.4845V10.3046C7.07037 10.5461 7.26137 10.7393 7.50013 10.7393C7.73888 10.7393 7.92988 10.5461 7.92988 10.3046V1.4845L9.92903 3.50677C10.0118 3.59049 10.1232 3.63558 10.2314 3.63558C10.3429 3.63558 10.4511 3.59371 10.5339 3.50677C10.7026 3.3361 10.7026 3.06239 10.5339 2.89172L7.80254 0.128807C7.72296 0.0483026 7.61154 0 7.50013 0C7.38552 0 7.27729 0.0450824 7.19771 0.128807L4.46638 2.89172C4.29766 3.06239 4.29766 3.3361 4.46638 3.50677C4.63192 3.67422 4.90569 3.67422 5.07122 3.50677Z" fill="#535353"/>
</svg>
