<svg  fill="none" width="24" height="24" xmlns="http://www.w3.org/2000/svg">

<svg id="administration" width="24" height="24" viewBox="0 0 24 24" fill="none" xmlns="http://www.w3.org/2000/svg">
<path d="M19 22H5C3.9 22 3 21.1 3 20V6C3 4.9 3.9 4 5 4H19C20.1 4 21 4.9 21 6V20C21 21.1 20.1 22 19 22Z" stroke="white" stroke-width="2" stroke-linecap="round" stroke-linejoin="round"/>
<path d="M12 14C13.6569 14 15 12.6569 15 11C15 9.34315 13.6569 8 12 8C10.3431 8 9 9.34315 9 11C9 12.6569 10.3431 14 12 14Z" stroke="white" stroke-width="2" stroke-linecap="round" stroke-linejoin="round"/>
<path d="M17 18.5C15.6 17.5 13.9 17 12 17C10.1 17 8.4 17.6 7 18.5" stroke="white" stroke-width="2" stroke-linecap="round" stroke-linejoin="round"/>
</svg>

<svg id="technicalmain" width="24" height="24" viewBox="0 0 24 24" fill="none" xmlns="http://www.w3.org/2000/svg">
<path d="M14.6999 6.30001C14.5166 6.48694 14.414 6.73826 14.414 7.00001C14.414 7.26176 14.5166 7.51308 14.6999 7.70001L16.2999 9.30001C16.4868 9.48324 16.7381 9.58587 16.9999 9.58587C17.2616 9.58587 17.5129 9.48324 17.6999 9.30001L21.4699 5.53001C21.9727 6.6412 22.1249 7.87924 21.9063 9.07916C21.6877 10.2791 21.1086 11.3839 20.2461 12.2463C19.3837 13.1087 18.2789 13.6878 17.079 13.9065C15.8791 14.1251 14.641 13.9728 13.5299 13.47L6.61986 20.38C6.22203 20.7778 5.68246 21.0013 5.11986 21.0013C4.55725 21.0013 4.01768 20.7778 3.61986 20.38C3.22203 19.9822 2.99854 19.4426 2.99854 18.88C2.99854 18.3174 3.22203 17.7778 3.61986 17.38L10.5299 10.47C10.027 9.35882 9.87477 8.12078 10.0934 6.92087C10.312 5.72095 10.8911 4.61617 11.7536 3.75373C12.616 2.8913 13.7208 2.31218 14.9207 2.09355C16.1206 1.87493 17.3587 2.02718 18.4699 2.53001L14.7099 6.29001L14.6999 6.30001Z" stroke="white" stroke-width="2" stroke-linecap="round" stroke-linejoin="round"/>
</svg>

<svg id="crm" width="24" height="24" viewBox="0 0 24 24" fill="none" xmlns="http://www.w3.org/2000/svg">
<path d="M21.2099 15.8901C20.5737 17.3946 19.5787 18.7203 18.3118 19.7514C17.0449 20.7825 15.5447 21.4875 13.9424 21.8049C12.34 22.1222 10.6843 22.0422 9.12006 21.5719C7.55578 21.1015 6.13054 20.2551 4.96893 19.1067C3.80733 17.9583 2.94473 16.5428 2.45655 14.984C1.96837 13.4252 1.86948 11.7706 2.16851 10.1647C2.46755 8.55886 3.15541 7.05071 4.17196 5.77211C5.18851 4.49351 6.5028 3.4834 7.99992 2.83008" stroke="white" stroke-width="2" stroke-linecap="round" stroke-linejoin="round"/>
<path d="M22 12C22 10.6868 21.7413 9.38642 21.2388 8.17317C20.7362 6.95991 19.9997 5.85752 19.0711 4.92893C18.1425 4.00035 17.0401 3.26375 15.8268 2.7612C14.6136 2.25866 13.3132 2 12 2V12H22Z" stroke="white" stroke-width="2" stroke-linecap="round" stroke-linejoin="round"/>
</svg>

<svg id="bases" width="24" height="24" viewBox="0 0 24 24" fill="none" xmlns="http://www.w3.org/2000/svg">
<path d="M12 8C16.9706 8 21 6.65685 21 5C21 3.34315 16.9706 2 12 2C7.02944 2 3 3.34315 3 5C3 6.65685 7.02944 8 12 8Z" stroke="white" stroke-width="2" stroke-linecap="round" stroke-linejoin="round"/>
<path d="M21 12C21 13.66 17 15 12 15C7 15 3 13.66 3 12" stroke="white" stroke-width="2" stroke-linecap="round" stroke-linejoin="round"/>
<path d="M3 5V19C3 20.66 7 22 12 22C17 22 21 20.66 21 19V5" stroke="white" stroke-width="2" stroke-linecap="round" stroke-linejoin="round"/>
</svg>


<symbol id="campany" viewBox="0 0 48 48" style="overflow: visible; fill: var(--fill); stroke: var(--stroke)">
<path d="M46.5938 22.5938H42.375C41.5984 22.5938 40.9688 23.2234 40.9688 24C40.9688 24.7766 41.5984 25.4062 42.375 25.4062H46.5938C47.3704 25.4062 48 24.7766 48 24C48 23.2234 47.3704 22.5938 46.5938 22.5938Z" />
<path d="M44.7754 31.4431L41.9629 28.6306C41.4138 28.0815 40.5234 28.0815 39.9742 28.6306C39.4249 29.1797 39.4249 30.0701 39.9742 30.6193L42.7867 33.4318C43.3358 33.981 44.2263 33.981 44.7754 33.4318C45.3246 32.8826 45.3246 31.9923 44.7754 31.4431Z" />
<path d="M44.7751 14.5681C44.226 14.019 43.3356 14.019 42.7864 14.5681L39.9739 17.3806C39.4247 17.9298 39.4247 18.8201 39.9739 19.3693C40.5231 19.9185 41.4135 19.9184 41.9626 19.3693L44.7751 16.5568C45.3243 16.0076 45.3243 15.1173 44.7751 14.5681Z" />
<path d="M32.5312 5.71875C30.419 5.71875 28.6645 7.27922 28.3597 9.30787L27.0769 10.5907C24.8442 12.8233 21.5562 14.1562 18.2812 14.1562H9.84375C8.01047 14.1562 6.44738 15.332 5.86688 16.9688H5.625C2.52338 16.9688 0 19.4921 0 22.5938C0 25.6954 2.52338 28.2188 5.625 28.2188H5.86688C6.29128 29.4154 7.24088 30.365 8.4375 30.7894V38.0625C8.4375 40.3887 10.3301 42.2812 12.6563 42.2812C14.9825 42.2812 16.875 40.3887 16.875 38.0625V31.0312H18.2812C21.5561 31.0312 24.8441 32.3642 27.0769 34.5968L28.3597 35.8796C28.6645 37.9082 30.4191 39.4688 32.5313 39.4688C34.8575 39.4688 36.75 37.5762 36.75 35.25V9.9375C36.75 7.61128 34.8575 5.71875 32.5312 5.71875ZM5.625 25.4062C4.07419 25.4062 2.8125 24.1446 2.8125 22.5938C2.8125 21.0429 4.07419 19.7812 5.625 19.7812V25.4062ZM14.0625 38.0625C14.0625 38.8379 13.4317 39.4688 12.6562 39.4688C11.8808 39.4688 11.25 38.8379 11.25 38.0625V31.0312H14.0625V38.0625ZM16.875 28.2188H9.84375C9.06834 28.2188 8.4375 27.5879 8.4375 26.8125V18.375C8.4375 17.5996 9.06834 16.9688 9.84375 16.9688H16.875V28.2188ZM28.3125 31.9074C25.9368 29.8513 22.8823 28.5738 19.6781 28.2825L19.6782 16.9049C22.8823 16.6137 25.9368 15.3362 28.3125 13.28V31.9074ZM33.9375 35.25C33.9375 36.0254 33.3067 36.6562 32.5313 36.6562H32.5312C31.7558 36.6562 31.125 36.0254 31.125 35.25V9.9375C31.125 9.16209 31.7558 8.53125 32.5313 8.53125C33.3067 8.53125 33.9375 9.16209 33.9375 9.9375V35.25Z" />
</symbol>


<symbol id="dashboard" viewBox="0 0 24 24" style="overflow: visible; stroke:var(--stroke)">
<path d="M3 9L12 2L21 9V20C21 20.5304 20.7893 21.0391 20.4142 21.4142C20.0391 21.7893 19.5304 22 19 22H5C4.46957 22 3.96086 21.7893 3.58579 21.4142C3.21071 21.0391 3 20.5304 3 20V9Z"  stroke-width="2" stroke-linecap="round" stroke-linejoin="round"/>
<path d="M9 22V12H15V22" stroke-width="2" stroke-linecap="round" stroke-linejoin="round"/>
</symbol>


<symbol id="reports" viewBox="0 0 24 24" style="overflow: visible; stroke:var(--stroke)">
<!-- <path d="M3 9L12 2L21 9V20C21 20.5304 20.7893 21.0391 20.4142 21.4142C20.0391 21.7893 19.5304 22 19 22H5C4.46957 22 3.96086 21.7893 3.58579 21.4142C3.21071 21.0391 3 20.5304 3 20V9Z"  stroke-width="2" stroke-linecap="round" stroke-linejoin="round"/>
<path d="M9 22V12H15V22" stroke-width="2" stroke-linecap="round" stroke-linejoin="round"/> -->
<path d="M21.2099 15.8901C20.5737 17.3946 19.5787 18.7203 18.3118 19.7514C17.0449 20.7825 15.5447 21.4875 13.9424 21.8049C12.34 22.1222 10.6843 22.0422 9.12006 21.5719C7.55578 21.1015 6.13054 20.2551 4.96893 19.1067C3.80733 17.9583 2.94473 16.5428 2.45655 14.984C1.96837 13.4252 1.86948 11.7706 2.16851 10.1647C2.46755 8.55886 3.15541 7.05071 4.17196 5.77211C5.18851 4.49351 6.5028 3.4834 7.99992 2.83008" stroke="white" stroke-width="2" stroke-linecap="round" stroke-linejoin="round"/>
<path d="M22 12C22 10.6868 21.7413 9.38642 21.2388 8.17317C20.7362 6.95991 19.9997 5.85752 19.0711 4.92893C18.1425 4.00035 17.0401 3.26375 15.8268 2.7612C14.6136 2.25866 13.3132 2 12 2V12H22Z" stroke="white" stroke-width="2" stroke-linecap="round" stroke-linejoin="round"/>

</symbol>

<symbol id="adv" viewBox="0 0 48 48" style="overflow: visible; fill: var(--fill); stroke: var(--stroke)">
<path d="M46.5938 22.5938H42.375C41.5984 22.5938 40.9688 23.2234 40.9688 24C40.9688 24.7766 41.5984 25.4062 42.375 25.4062H46.5938C47.3704 25.4062 48 24.7766 48 24C48 23.2234 47.3704 22.5938 46.5938 22.5938Z" />
<path d="M44.7754 31.4431L41.9629 28.6306C41.4138 28.0815 40.5234 28.0815 39.9742 28.6306C39.4249 29.1797 39.4249 30.0701 39.9742 30.6193L42.7867 33.4318C43.3358 33.981 44.2263 33.981 44.7754 33.4318C45.3246 32.8826 45.3246 31.9923 44.7754 31.4431Z" />
<path d="M44.7751 14.5681C44.226 14.019 43.3356 14.019 42.7864 14.5681L39.9739 17.3806C39.4247 17.9298 39.4247 18.8201 39.9739 19.3693C40.5231 19.9185 41.4135 19.9184 41.9626 19.3693L44.7751 16.5568C45.3243 16.0076 45.3243 15.1173 44.7751 14.5681Z" />
<path d="M32.5312 5.71875C30.419 5.71875 28.6645 7.27922 28.3597 9.30787L27.0769 10.5907C24.8442 12.8233 21.5562 14.1562 18.2812 14.1562H9.84375C8.01047 14.1562 6.44738 15.332 5.86688 16.9688H5.625C2.52338 16.9688 0 19.4921 0 22.5938C0 25.6954 2.52338 28.2188 5.625 28.2188H5.86688C6.29128 29.4154 7.24088 30.365 8.4375 30.7894V38.0625C8.4375 40.3887 10.3301 42.2812 12.6563 42.2812C14.9825 42.2812 16.875 40.3887 16.875 38.0625V31.0312H18.2812C21.5561 31.0312 24.8441 32.3642 27.0769 34.5968L28.3597 35.8796C28.6645 37.9082 30.4191 39.4688 32.5313 39.4688C34.8575 39.4688 36.75 37.5762 36.75 35.25V9.9375C36.75 7.61128 34.8575 5.71875 32.5312 5.71875ZM5.625 25.4062C4.07419 25.4062 2.8125 24.1446 2.8125 22.5938C2.8125 21.0429 4.07419 19.7812 5.625 19.7812V25.4062ZM14.0625 38.0625C14.0625 38.8379 13.4317 39.4688 12.6562 39.4688C11.8808 39.4688 11.25 38.8379 11.25 38.0625V31.0312H14.0625V38.0625ZM16.875 28.2188H9.84375C9.06834 28.2188 8.4375 27.5879 8.4375 26.8125V18.375C8.4375 17.5996 9.06834 16.9688 9.84375 16.9688H16.875V28.2188ZM28.3125 31.9074C25.9368 29.8513 22.8823 28.5738 19.6781 28.2825L19.6782 16.9049C22.8823 16.6137 25.9368 15.3362 28.3125 13.28V31.9074ZM33.9375 35.25C33.9375 36.0254 33.3067 36.6562 32.5313 36.6562H32.5312C31.7558 36.6562 31.125 36.0254 31.125 35.25V9.9375C31.125 9.16209 31.7558 8.53125 32.5313 8.53125C33.3067 8.53125 33.9375 9.16209 33.9375 9.9375V35.25Z" />
</symbol>


<symbol id="wfm" viewBox="0 0 48 54" style="overflow: visible; fill: var(--fill); stroke: var(--stroke)">
<path d="M47.9973 18.1994C47.9966 18.1829 47.9962 18.1661 47.9944 18.1496C47.9944 18.1489 47.9944 18.1482 47.9944 18.1471C47.6018 14.5948 45.0021 11.6926 41.7513 10.4603C43.044 9.42869 43.8749 7.84117 43.8749 6.06249C43.8749 2.96105 41.3517 0.4375 38.2499 0.4375C35.1481 0.4375 32.6249 2.96105 32.6249 6.06249C32.6249 7.83971 33.4544 9.42576 34.7453 10.4574C33.2834 11.0052 31.9614 11.8808 30.9459 12.9959C29.9641 11.879 28.7416 11.0217 27.383 10.4797C28.6896 9.44883 29.5312 7.85252 29.5312 6.06249C29.5312 2.96105 27.008 0.4375 23.9062 0.4375C20.8044 0.4375 18.2812 2.96105 18.2812 6.06249C18.2812 7.85252 19.1228 9.44883 20.4298 10.4797C19.0708 11.0217 17.8484 11.879 16.8669 12.9959C15.851 11.8808 14.5294 11.0052 13.0671 10.4574C14.358 9.42576 15.1875 7.83971 15.1875 6.06249C15.1875 2.96105 12.6643 0.4375 9.56248 0.4375C6.46068 0.4375 3.93749 2.96105 3.93749 6.06249C3.93749 7.84923 4.77575 9.44261 6.07836 10.4739C2.96118 11.6955 0.670897 14.4582 0.154907 17.7343C0.0571288 17.8823 0 18.0595 0 18.25V22.8437C0 23.2839 0.306152 23.6647 0.736082 23.7592L4.8153 24.6564C5.30492 26.6732 6.10033 28.5742 7.18614 30.3221L5.29723 33.4697C5.07604 33.8388 5.13427 34.3108 5.43822 34.6152L9.416 38.5929C9.72032 38.8973 10.1927 38.9551 10.5615 38.7339L13.7592 36.8154C15.5083 37.877 17.3899 38.649 19.3678 39.117C19.6369 40.1944 20.198 42.4392 20.273 42.7388C20.2767 42.7557 20.2807 42.7725 20.2855 42.7893C20.3931 43.1878 20.7575 43.4811 21.1904 43.4811C21.2417 43.4811 21.2926 43.4767 21.3416 43.4687H26.8124C27.2427 43.4687 27.6177 43.1761 27.7217 42.7586L28.6321 39.117C30.61 38.649 32.4916 37.877 34.2407 36.8154L37.4384 38.7339C37.8072 38.9555 38.2796 38.8973 38.5839 38.5929L42.5617 34.6152C42.8656 34.3108 42.9239 33.8388 42.7027 33.47L40.8138 30.3221C41.8999 28.5727 42.6953 26.6721 43.1846 24.6564L47.2638 23.7592C47.6937 23.6647 47.9999 23.2839 47.9999 22.8437V18.25C47.9999 18.2492 47.9999 18.2481 47.9999 18.247C47.9995 18.2313 47.9981 18.2155 47.9973 18.1994ZM34.4999 6.06249C34.4999 3.99487 36.1823 2.3125 38.2499 2.3125C40.3175 2.3125 41.9999 3.99487 41.9999 6.06249C41.9999 8.13011 40.3175 9.81248 38.2499 9.81248C36.1823 9.81248 34.4999 8.13011 34.4999 6.06249ZM38.2499 11.6875C41.8102 11.6875 45.0395 14.1297 45.9279 17.3125H33.0926C32.8967 16.3526 32.548 15.4236 32.0646 14.5688C33.4815 12.8033 35.8443 11.6875 38.2499 11.6875ZM34.2187 20.125C34.2187 25.8115 29.5923 30.4374 23.9062 30.4374C18.2201 30.4374 13.5937 25.8115 13.5937 20.125C13.5937 19.8097 13.6087 19.4969 13.6366 19.1875H34.1758C34.2037 19.4969 34.2187 19.8097 34.2187 20.125ZM20.1562 6.06249C20.1562 3.99487 21.8386 2.3125 23.9062 2.3125C25.9738 2.3125 27.6562 3.99487 27.6562 6.06249C27.6562 8.13011 25.9738 9.81248 23.9062 9.81248C21.8386 9.81248 20.1562 8.13011 20.1562 6.06249ZM23.9062 11.6875C27.3207 11.6875 30.3098 13.9917 31.1685 17.3125H16.6439C17.5023 13.992 20.4906 11.6875 23.9062 11.6875ZM5.81249 6.06249C5.81249 3.99487 7.49486 2.3125 9.56248 2.3125C11.6301 2.3125 13.3125 3.99487 13.3125 6.06249C13.3125 8.13011 11.6301 9.81248 9.56248 9.81248C7.49486 9.81248 5.81249 8.13011 5.81249 6.06249ZM9.56248 11.6875C11.9681 11.6875 14.3309 12.8033 15.7478 14.5688C15.2644 15.4236 14.9157 16.3526 14.7198 17.3125H2.15771C3.01428 14.0862 6.07909 11.6875 9.56248 11.6875ZM46.1249 22.09L42.201 22.9528C41.841 23.0319 41.5608 23.3147 41.4847 23.675C41.021 25.8752 40.1615 27.9315 38.9296 29.7867C38.7293 30.0881 38.7205 30.4774 38.9065 30.7875L40.7182 33.8069L37.7753 36.7494L34.7123 34.9114C34.4054 34.7276 34.0206 34.7342 33.7199 34.9286C31.861 36.1335 29.8271 36.9677 27.6752 37.4079C27.3218 37.4804 27.0413 37.7492 26.9538 38.0989L26.0804 41.5937H21.9191C21.6983 40.7093 21.3306 39.2389 21.1501 38.5164C21.0824 38.3677 21.0816 37.5628 20.3243 37.4079C18.1724 36.9677 16.1389 36.1335 14.2796 34.9286C13.9793 34.7342 13.5941 34.7276 13.2876 34.9114L10.2242 36.7494L7.28172 33.8069L9.093 30.7875C9.27903 30.4774 9.27024 30.0877 9.06993 29.7863C7.83873 27.9333 6.97887 25.8774 6.51488 23.675C6.43907 23.3147 6.15892 23.0319 5.79894 22.9528L1.875 22.09V19.1867H11.7546C11.7312 19.4969 11.7187 19.8097 11.7187 20.1242C11.7187 26.8442 17.1859 32.3124 23.9062 32.3124C30.6265 32.3124 36.0937 26.8453 36.0937 20.125C36.0937 19.8108 36.0812 19.4976 36.0578 19.1875H46.1249V22.09Z" />
</symbol>


<symbol id="ref" viewBox="0 0 48 48" style="overflow: visible; fill: var(--fill); stroke: var(--stroke)">
<path d="M11.4921 15.4817C11.3955 15.8419 11.446 16.2258 11.6326 16.5487L14.4451 21.4201C14.8334 22.0928 15.6934 22.3234 16.366 21.9348L17.9669 21.0106C18.5363 21.4237 19.1423 21.7748 19.7808 22.0615V23.9062C19.7808 24.6829 20.4104 25.3125 21.187 25.3125H26.812C27.5887 25.3125 28.2183 24.6829 28.2183 23.9062V22.0614C28.8567 21.7747 29.4627 21.4236 30.0322 21.0105L31.6329 21.9347C32.3054 22.3231 33.1656 22.0925 33.5539 21.42L36.3664 16.5487C36.5528 16.2257 36.6034 15.8418 36.5069 15.4816C36.4103 15.1213 36.1747 14.8142 35.8517 14.6277L34.2587 13.7079C34.2941 13.3589 34.3119 13.0075 34.3119 12.6562C34.3119 12.305 34.2941 11.9536 34.2586 11.6045L35.8516 10.6847C36.1746 10.4982 36.4103 10.191 36.5068 9.83081C36.6033 9.47062 36.5528 9.08672 36.3663 8.76375L33.5538 3.89241C33.1654 3.21975 32.3054 2.98931 31.6328 3.37772L30.0321 4.30191C29.4627 3.88884 28.8566 3.53766 28.2182 3.25097V1.40625C28.2182 0.629625 27.5886 0 26.8119 0H21.1869C20.4103 0 19.7807 0.629625 19.7807 1.40625V3.25106C19.1423 3.53775 18.5363 3.88894 17.9668 4.302L16.3659 3.37781C15.6932 2.98922 14.8333 3.21994 14.445 3.8925L11.6325 8.76384C11.446 9.08681 11.3955 9.47072 11.492 9.83091C11.5884 10.1912 11.8241 10.4983 12.1472 10.6848L13.7402 11.6046C13.7048 11.9537 13.6869 12.3051 13.6869 12.6562C13.6869 13.0074 13.7048 13.3588 13.7403 13.708L12.1473 14.6278C11.8242 14.8143 11.5885 15.1214 11.4921 15.4817ZM16.6513 14.1656C16.5505 13.6717 16.4994 13.1639 16.4994 12.6562C16.4994 12.1486 16.5505 11.6408 16.6513 11.1469C16.7723 10.5542 16.5006 9.95044 15.9766 9.648L14.7714 8.95219L16.1777 6.51656L17.3929 7.21809C17.9173 7.52081 18.5766 7.45378 19.0296 7.05206C19.7964 6.37134 20.6718 5.86416 21.6313 5.54466C22.2057 5.35341 22.5932 4.81584 22.5932 4.21041V2.8125H25.4057V4.21041C25.4057 4.81584 25.7933 5.35331 26.3677 5.54456C27.3272 5.86416 28.2025 6.37125 28.9695 7.05197C29.4224 7.45397 30.0818 7.52081 30.6061 7.218L31.8213 6.51647L33.2275 8.95209L32.0224 9.64791C31.4984 9.95044 31.2266 10.5542 31.3477 11.1471C31.4484 11.6406 31.4995 12.1482 31.4995 12.6562C31.4995 13.1641 31.4484 13.6717 31.3477 14.1652C31.2266 14.7581 31.4984 15.362 32.0224 15.6644L33.2275 16.3602L31.8213 18.7958L30.6061 18.0943C30.0819 17.7916 29.4223 17.8585 28.9695 18.2603C28.2025 18.9411 27.3272 19.4482 26.3677 19.7677C25.7933 19.959 25.4057 20.4965 25.4057 21.1019V22.5H22.5932V21.1021C22.5932 20.4967 22.2057 19.9592 21.6312 19.7679C20.6717 19.4484 19.7963 18.9412 19.0295 18.2605C18.5766 17.8586 17.9172 17.7918 17.3928 18.0945L16.1776 18.796L14.7713 16.3604L15.9765 15.6646C16.5005 15.362 16.7723 14.7583 16.6513 14.1656Z" />
<path d="M24 17.8125C26.8432 17.8125 29.1562 15.4994 29.1562 12.6562C29.1562 9.81309 26.8432 7.5 24 7.5C21.1568 7.5 18.8438 9.81309 18.8438 12.6562C18.8438 15.4994 21.1568 17.8125 24 17.8125ZM24 10.3125C25.2923 10.3125 26.3438 11.3639 26.3438 12.6562C26.3438 13.9486 25.2923 15 24 15C22.7077 15 21.6562 13.9486 21.6562 12.6562C21.6562 11.3639 22.7077 10.3125 24 10.3125Z" />
<path d="M46.5938 45.1875H45.1875V31.125H46.5938C47.3704 31.125 48 30.4954 48 29.7188C48 28.9421 47.3704 28.3125 46.5938 28.3125H9.84375C4.41591 28.3125 0 32.7284 0 38.1562C0 43.5841 4.41591 48 9.84375 48H46.5938C47.3704 48 48 47.3704 48 46.5938C48 45.8171 47.3704 45.1875 46.5938 45.1875ZM42.375 33.9375H12.8438C12.0671 33.9375 11.4375 34.5671 11.4375 35.3438C11.4375 36.1204 12.0671 36.75 12.8438 36.75H42.375V39.5625H12.8438C12.0671 39.5625 11.4375 40.1921 11.4375 40.9688C11.4375 41.7454 12.0671 42.375 12.8438 42.375H42.375V45.1875H9.84375C5.96672 45.1875 2.8125 42.0333 2.8125 38.1562C2.8125 34.2792 5.96672 31.125 9.84375 31.125H42.375V33.9375Z" />
</symbol>

<symbol id="news" viewBox="0 0 44 62" style="overflow: visible; fill: var(--fill); stroke: var(--stroke)">
<path d="M41 48H7.5C3.364 48 0 44.636 0 40.5V5.5C0 2.466 2.466 0 5.5 0H30.5C33.534 0 36 2.466 36 5.5V6H42.5C45.534 6 48 8.466 48 11.5V40.5C48 44.332 45.112 47.5 41.398 47.946C41.272 47.982 41.138 48 41 48ZM36 9V40.5C36 42.982 38.018 45 40.5 45C42.982 45 45 42.982 45 40.5V11.5C45 10.122 43.878 9 42.5 9H36ZM5.5 3C4.122 3 3 4.122 3 5.5V40.5C3 42.982 5.018 45 7.5 45H34.504C33.56 43.746 33 42.186 33 40.5V5.5C33 4.122 31.878 3 30.5 3H5.5Z" />
<path d="M16.5 18H7.5C6.672 18 6 17.328 6 16.5V7.5C6 6.672 6.672 6 7.5 6H16.5C17.328 6 18 6.672 18 7.5V16.5C18 17.328 17.328 18 16.5 18ZM9 15H15V9H9V15Z" />
<path d="M28.4988 10.9999H23.4988C22.6708 10.9999 21.9988 10.3279 21.9988 9.49988C21.9988 8.67188 22.6708 7.99988 23.4988 7.99988H28.4988C29.3268 7.99988 29.9988 8.67188 29.9988 9.49988C29.9988 10.3279 29.3268 10.9999 28.4988 10.9999Z" />
<path d="M28.4988 16.9999H23.4988C22.6708 16.9999 21.9988 16.3279 21.9988 15.4999C21.9988 14.6719 22.6708 13.9999 23.4988 13.9999H28.4988C29.3268 13.9999 29.9988 14.6719 29.9988 15.4999C29.9988 16.3279 29.3268 16.9999 28.4988 16.9999Z" />
<path d="M28.5 25.0002H7.5C6.672 25.0002 6 24.3282 6 23.5001C6 22.6721 6.672 22.0001 7.5 22.0001H28.5C29.328 22.0001 30 22.6721 30 23.5001C30 24.3282 29.328 25.0002 28.5 25.0002Z" />
<path d="M28.5 32.4999H7.5C6.672 32.4999 6 31.8279 6 30.9999C6 30.1719 6.672 29.4999 7.5 29.4999H28.5C29.328 29.4999 30 30.1719 30 30.9999C30 31.8279 29.328 32.4999 28.5 32.4999Z" />
<path d="M28.5 39.9999H7.5C6.672 39.9999 6 39.3279 6 38.4999C6 37.6719 6.672 36.9999 7.5 36.9999H28.5C29.328 36.9999 30 37.6719 30 38.4999C30 39.3279 29.328 39.9999 28.5 39.9999Z" />

</symbol>

<symbol id="incomming" viewBox="0 0 48 48" style="overflow: visible; stroke: var(--stroke)">
<path d="M42.0001 29.9999V37.8599C42.0062 38.4378 41.887 39.0101 41.6508 39.5375C41.4145 40.0649 41.0668 40.5349 40.6315 40.915C40.1963 41.2951 39.6838 41.5765 39.1294 41.7396C38.575 41.9027 37.9919 41.9438 37.4201 41.8599C29.494 40.8418 22.132 37.2153 16.494 31.552C10.8561 25.8887 7.26268 18.5105 6.28008 10.5799C6.19652 10.0098 6.23711 9.42842 6.39908 8.87546C6.56106 8.3225 6.84058 7.81106 7.21852 7.37614C7.59646 6.94122 8.06391 6.59309 8.58886 6.35556C9.11382 6.11804 9.68389 5.99673 10.2601 5.99994H18.0001C18.4945 5.99694 18.9725 6.17719 19.3419 6.50591C19.7112 6.83462 19.9457 7.2885 20.0001 7.77994C20.1985 10.4011 20.8764 12.9635 22.0001 15.3399C22.1928 15.79 22.2137 16.2951 22.0589 16.7595C21.904 17.224 21.5842 17.6155 21.1601 17.8599L19.4401 18.8399C19.1922 18.9763 18.976 19.1637 18.8059 19.3898C18.6357 19.6159 18.5155 19.8755 18.4531 20.1514C18.3907 20.4274 18.3876 20.7135 18.444 20.9908C18.5003 21.2681 18.6149 21.5302 18.7801 21.7599C20.7587 24.6583 23.2617 27.1613 26.1601 29.1399C26.3898 29.3051 26.652 29.4197 26.9292 29.476C27.2065 29.5324 27.4926 29.5293 27.7686 29.4669C28.0446 29.4045 28.3042 29.2843 28.5302 29.1142C28.7563 28.944 28.9437 28.7279 29.0801 28.4799L30.0601 26.7599C30.3191 26.3302 30.7302 26.0135 31.2118 25.8728C31.6934 25.732 32.2104 25.7774 32.6601 25.9999C35.0365 27.1236 37.5989 27.8015 40.2201 27.9999C40.7115 28.0543 41.1654 28.2888 41.4941 28.6582C41.8228 29.0275 42.0031 29.5055 42.0001 29.9999Z"  stroke-width="4" stroke-linecap="round" stroke-linejoin="round"/>
<path d="M32 6V16H42M32 16L42 6L32 16Z"  stroke-width="4" stroke-linecap="round" stroke-linejoin="round"/>

</symbol>

<symbol id="outgoing" viewBox="0 0 48 48" style="overflow: visible; stroke: var(--stroke)">
<path d="M42.0001 29.9999V37.8599C42.0062 38.4378 41.887 39.0101 41.6508 39.5375C41.4145 40.0649 41.0668 40.5349 40.6315 40.915C40.1963 41.2951 39.6838 41.5765 39.1294 41.7396C38.575 41.9027 37.9919 41.9438 37.4201 41.8599C29.494 40.8418 22.132 37.2153 16.494 31.552C10.8561 25.8887 7.26268 18.5105 6.28008 10.5799C6.19652 10.0098 6.23711 9.42842 6.39908 8.87546C6.56106 8.3225 6.84058 7.81106 7.21852 7.37614C7.59646 6.94122 8.06391 6.59309 8.58886 6.35556C9.11382 6.11804 9.68389 5.99673 10.2601 5.99994H18.0001C18.4945 5.99694 18.9725 6.17719 19.3419 6.50591C19.7112 6.83462 19.9457 7.2885 20.0001 7.77994C20.1985 10.4011 20.8764 12.9635 22.0001 15.3399C22.1928 15.79 22.2137 16.2951 22.0589 16.7595C21.904 17.224 21.5842 17.6155 21.1601 17.8599L19.4401 18.8399C19.1922 18.9763 18.976 19.1637 18.8059 19.3898C18.6357 19.6159 18.5155 19.8755 18.4531 20.1514C18.3907 20.4274 18.3876 20.7135 18.444 20.9908C18.5003 21.2681 18.6149 21.5302 18.7801 21.7599C20.7587 24.6583 23.2617 27.1613 26.1601 29.1399C26.3898 29.3051 26.652 29.4197 26.9292 29.476C27.2065 29.5324 27.4926 29.5293 27.7686 29.4669C28.0446 29.4045 28.3042 29.2843 28.5302 29.1142C28.7563 28.944 28.9437 28.7279 29.0801 28.4799L30.0601 26.7599C30.3191 26.3302 30.7302 26.0135 31.2118 25.8728C31.6934 25.732 32.2104 25.7774 32.6601 25.9999C35.0365 27.1236 37.5989 27.8015 40.2201 27.9999C40.7115 28.0543 41.1654 28.2888 41.4941 28.6582C41.8228 29.0275 42.0031 29.5055 42.0001 29.9999Z"  stroke-width="4" stroke-linecap="round" stroke-linejoin="round"/>
<path d="M42 16V6H32M42 6L32 16L42 6Z"  stroke-width="4" stroke-linecap="round" stroke-linejoin="round"/>

</symbol>

<symbol id="report" viewBox="0 0 48 48" style="overflow: visible; fill: var(--fill); stroke: var(--stroke)">
<path d="M18 20V10" stroke-width="2" stroke-linecap="round" stroke-linejoin="round"/>
<path d="M12 20V4" stroke-width="2" stroke-linecap="round" stroke-linejoin="round"/>
<path d="M6 20V14" stroke-width="2" stroke-linecap="round" stroke-linejoin="round"/>
</symbol>

<symbol id="tasks" viewBox="0 0 24 24" style="overflow: visible; stroke: var(--stroke)">
<path d="M14 2H6C5.46957 2 4.96086 2.21071 4.58579 2.58579C4.21071 2.96086 4 3.46957 4 4V20C4 20.5304 4.21071 21.0391 4.58579 21.4142C4.96086 21.7893 5.46957 22 6 22H18C18.5304 22 19.0391 21.7893 19.4142 21.4142C19.7893 21.0391 20 20.5304 20 20V8L14 2Z"  stroke-width="1.5" stroke-linecap="round" stroke-linejoin="round"/>
<path d="M14 2V8H20"  stroke-linecap="round" stroke-linejoin="round"/>
<path d="M16 13H8"  stroke-width="1.5" stroke-linecap="round" stroke-linejoin="round"/>
<path d="M16 17H8"  stroke-width="1.5" stroke-linecap="round" stroke-linejoin="round"/>
<path d="M10 9H9H8"  stroke-width="1.5" stroke-linecap="round" stroke-linejoin="round"/>
</symbol>

<symbol id="flashpanel" viewBox="0 0 34 40" style="overflow: visible; fill: var(--fill); stroke: var(--stroke)">
<path d="M29.1618 24.4537C28.86 24.9165 28.9906 25.5361 29.4532 25.8377C29.9158 26.1393 30.5354 26.0087 30.837 25.5461C33.19 21.9375 34.5572 17.6269 34.5572 12.9999C34.5572 8.37308 33.19 4.06246 30.837 0.453821C30.5354 -0.00881857 29.9158 -0.139319 29.4532 0.162321C28.9906 0.463961 28.86 1.08354 29.1618 1.54616C31.3092 4.83976 32.5572 8.7726 32.5572 12.9999C32.5572 17.2273 31.3092 21.1603 29.1618 24.4537Z"/>
<path d="M6.10281 0.162453C6.56543 0.464093 6.69595 1.08365 6.39431 1.54629C4.24683 4.83987 2.99878 8.77273 2.99878 13.0002C2.99878 17.2274 4.24683 21.1604 6.39431 24.454C6.69595 24.9166 6.56543 25.5362 6.10281 25.8378C5.64017 26.1394 5.02061 26.009 4.71895 25.5462C2.36608 21.9376 0.998779 17.627 0.998779 13.0002C0.998779 8.37319 2.36608 4.06257 4.71897 0.453933C5.02061 -0.00868672 5.64017 -0.139207 6.10281 0.162453Z"/>
<path d="M25.1864 18.0689C24.8642 18.5175 24.9668 19.1423 25.4154 19.4645C25.864 19.7865 26.4888 19.6839 26.811 19.2353C28.1068 17.4305 28.8702 15.2159 28.8702 12.8261C28.8702 10.4363 28.1068 8.22171 26.811 6.41684C26.4888 5.96822 25.864 5.86566 25.4154 6.18778C24.9668 6.5099 24.8642 7.13469 25.1864 7.58331C26.2462 9.05953 26.8702 10.8685 26.8702 12.8261C26.8702 14.7837 26.2462 16.5927 25.1864 18.0689Z"/>
<path d="M10.4535 6.18814C10.9021 6.51026 11.0047 7.13506 10.6826 7.58368C9.62266 9.05998 8.99878 10.8688 8.99878 12.8264C8.99878 14.7842 9.62264 16.593 10.6826 18.0692C11.0047 18.518 10.9021 19.1428 10.4535 19.4648C10.0049 19.787 9.3801 19.6844 9.05798 19.2358C7.76206 17.431 6.99878 15.2164 6.99878 12.8264C6.99878 10.4366 7.76206 8.22208 9.05798 6.4172C9.3801 5.96858 10.0049 5.86602 10.4535 6.18814Z"/>
<path fill-rule="evenodd" clip-rule="evenodd" d="M12.9988 12.9998C12.9988 10.2384 15.2374 7.99976 17.9988 7.99976C20.7602 7.99976 22.9987 10.2384 22.9987 12.9998C22.9987 15.7611 20.7602 17.9997 17.9988 17.9997C15.2374 17.9997 12.9988 15.7611 12.9988 12.9998ZM17.9988 9.99977C16.342 9.99977 14.9988 11.343 14.9988 12.9998C14.9988 14.6565 16.342 15.9997 17.9988 15.9997C19.6556 15.9997 20.9988 14.6565 20.9988 12.9998C20.9988 11.343 19.6556 9.99977 17.9988 9.99977Z"/>

</symbol>

<svg id="sms" viewBox="0 0 14 14" fill="none" style="overflow: visible; stroke: var(--stroke)" xmlns="http://www.w3.org/2000/svg">
        <path d="M12.25 8.75C12.25 9.05942 12.1271 9.35616 11.9083 9.57496C11.6895 9.79375 11.3928 9.91667 11.0833 9.91667H4.08333L1.75 12.25V2.91667C1.75 2.60725 1.87292 2.3105 2.09171 2.09171C2.3105 1.87292 2.60725 1.75 2.91667 1.75H11.0833C11.3928 1.75 11.6895 1.87292 11.9083 2.09171C12.1271 2.3105 12.25 2.60725 12.25 2.91667V8.75Z"  stroke-linecap="round" stroke-linejoin="round"/>
    </svg>
</svg>

