<svg  fill="none" width="24" height="24" xmlns="http://www.w3.org/2000/svg">

    <!-- PHONE -->
    <svg id="phone-o" viewBox="0 0 42 42" fill="none" style="overflow: visible; stroke:var(--stroke)">
        <rect x="0.5" y="0.5" width="41" height="41" rx="9.5" fill="#3FB969" stroke="#3FB969"/>
        <path d="M30.9999 25.92V28.92C31.0011 29.1985 30.944 29.4741 30.8324 29.7293C30.7209 29.9845 30.5572 30.2136 30.352 30.4018C30.1468 30.5901 29.9045 30.7335 29.6407 30.8227C29.3769 30.9119 29.0973 30.945 28.8199 30.92C25.7428 30.5856 22.7869 29.5341 20.1899 27.85C17.7738 26.3146 15.7253 24.2661 14.1899 21.85C12.4999 19.2412 11.4482 16.271 11.1199 13.18C11.0949 12.9034 11.1278 12.6247 11.2164 12.3616C11.3051 12.0985 11.4475 11.8567 11.6347 11.6516C11.8219 11.4465 12.0497 11.2827 12.3037 11.1705C12.5577 11.0583 12.8323 11.0002 13.1099 11H16.1099C16.5952 10.9952 17.0657 11.1671 17.4337 11.4835C17.8017 11.8 18.042 12.2394 18.1099 12.72C18.2366 13.68 18.4714 14.6227 18.8099 15.53C18.9445 15.8879 18.9736 16.2769 18.8938 16.6509C18.8141 17.0248 18.6288 17.3681 18.3599 17.64L17.0899 18.91C18.5135 21.4135 20.5864 23.4864 23.0899 24.91L24.3599 23.64C24.6318 23.3711 24.9751 23.1858 25.3491 23.1061C25.723 23.0263 26.112 23.0554 26.4699 23.19C27.3772 23.5285 28.3199 23.7634 29.2799 23.89C29.7657 23.9585 30.2093 24.2032 30.5265 24.5775C30.8436 24.9518 31.0121 25.4296 30.9999 25.92Z" stroke="white" stroke-linecap="round"  stroke-linejoin="round"/>
    </svg>
        
    <!-- CHAT -->
    <svg id="chat-o" viewBox="0 0 42 42" fill="none" style="overflow: visible; stroke:var(--stroke)">
        <rect width="42" height="42" rx="10" fill="#FF54B0"/>
        <path d="M30 25C30 25.5304 29.7893 26.0391 29.4142 26.4142C29.0391 26.7893 28.5304 27 28 27H16L12 31V15C12 14.4696 12.2107 13.9609 12.5858 13.5858C12.9609 13.2107 13.4696 13 14 13H28C28.5304 13 29.0391 13.2107 29.4142 13.5858C29.7893 13.9609 30 14.4696 30 15V25Z" stroke="white" stroke-linecap="round" stroke-linejoin="round"/>
    </svg>
        
    <!-- MESSENGER -->
    <svg id="messenger-o" viewBox="0 0 42 42" fill="none" style="overflow: visible; stroke:var(--stroke)">
        <rect width="42" height="42" rx="10" fill="#289BFF"/>
        <path d="M13.9715 28.7625V28.5119L13.7707 28.3619C11.1571 26.4096 9.5 23.4338 9.5 20.1105C9.5 14.2857 14.6122 9.5 21 9.5C27.3878 9.5 32.5 14.2857 32.5 20.112C32.5 25.9368 27.3878 30.7225 21 30.7225C19.8487 30.7225 18.7385 30.5653 17.6907 30.2756L17.495 30.2215L17.3169 30.3192L13.9715 32.1552V28.7625Z" stroke="white"/>
        <path d="M22.1928 23.9625L19.1373 20.703L13.1748 23.9625L19.7328 16.9995L22.8633 20.259L28.7523 16.9995L22.1928 23.9625Z" fill="white"/>
    </svg>
        
    <!-- FACEBOOK -->
    <svg id="fbcomment-o" viewBox="0 0 42 42" fill="none" style="overflow: visible; stroke:var(--stroke)">
        <rect width="42" height="42" rx="10" fill="#3F53B7"/>
        <path d="M27 11H24C22.6739 11 21.4021 11.5268 20.4645 12.4645C19.5268 13.4021 19 14.6739 19 16V19H16V23H19V31H23V23H26L27 19H23V16C23 15.7348 23.1054 15.4804 23.2929 15.2929C23.4804 15.1054 23.7348 15 24 15H27V11Z" stroke="white" stroke-linecap="round" stroke-linejoin="round"/>
    </svg>
    

    <!-- INSTAGRAM -->
    <svg id="instagram-o" viewBox="0 0 42 42" fill="none" style="overflow: visible; stroke:var(--stroke)">
        <defs>
            <filter id="filter0_b" x="-13" y="-13" width="68" height="68" filterUnits="userSpaceOnUse" color-interpolation-filters="sRGB">
            <feFlood flood-opacity="0" result="BackgroundImageFix"/>
            <feGaussianBlur in="BackgroundImage" stdDeviation="6.5"/>
            <feComposite in2="SourceAlpha" operator="in" result="effect1_backgroundBlur"/>
            <feBlend mode="normal" in="SourceGraphic" in2="effect1_backgroundBlur" result="shape"/>
            </filter>
            </defs>
        <rect width="42" height="42" rx="10" fill="#C4C4C4"/>
        <path d="M40.5 34.5C40.5 42.232 32.3741 41.5 20.5 41.5C8.62588 41.5 2 41.232 2 33.5C2 25.768 8.62588 20 20.5 20C32.3741 20 40.5 26.768 40.5 34.5Z" fill="#FF0000"/>
        <path d="M41 8.9999C41 18.1126 34.8071 24.9999 21 24.9999C7.19288 24.9999 0.5 18.6126 0.5 9.49994C0.5 0.38724 7.19288 0.999897 21 0.999897C34.8071 0.999897 41 -0.112801 41 8.9999Z" fill="#2F00F5"/>
        <path d="M42 24.5C42 31.4036 35.5833 37 21.5 37C7.41674 37 0 31.4036 0 24.5C0 17.5964 7.41674 12 21.5 12C35.5833 12 42 17.5964 42 24.5Z" fill="#C7006B"/>
        <g filter="url(#filter0_b)">
        <rect width="42" height="42" rx="10" fill="white" fill-opacity="0.14"/>
        </g>
        <path d="M26 11H16C13.2386 11 11 13.2386 11 16V26C11 28.7614 13.2386 31 16 31H26C28.7614 31 31 28.7614 31 26V16C31 13.2386 28.7614 11 26 11Z" stroke="white" stroke-linecap="round" stroke-linejoin="round"/>
        <path d="M25.0002 20.3698C25.1236 21.2021 24.9815 22.052 24.594 22.7988C24.2065 23.5456 23.5933 24.1512 22.8418 24.5295C22.0903 24.9077 21.2386 25.0394 20.408 24.9057C19.5773 24.7721 18.81 24.3799 18.215 23.785C17.6201 23.1901 17.2279 22.4227 17.0943 21.592C16.9606 20.7614 17.0923 19.9097 17.4705 19.1582C17.8488 18.4067 18.4544 17.7936 19.2012 17.4061C19.948 17.0186 20.7979 16.8764 21.6302 16.9998C22.4791 17.1257 23.265 17.5213 23.8719 18.1281C24.4787 18.735 24.8743 19.5209 25.0002 20.3698Z" stroke="white" stroke-linecap="round" stroke-linejoin="round"/>
        <path d="M26.5 15.5H26.51" stroke="white" stroke-width="2" stroke-linecap="round" stroke-linejoin="round"/>
        
        </svg>
        

    <!-- MAIL -->
    <svg id="mail-o" viewBox="0 0 42 42" fill="none" style="overflow: visible; stroke:var(--stroke)">
        <rect width="42" height="42" rx="10" fill="#D10000"/>
        <path d="M13 13H29C30.1 13 31 13.9 31 15V27C31 28.1 30.1 29 29 29H13C11.9 29 11 28.1 11 27V15C11 13.9 11.9 13 13 13Z" stroke="white" stroke-linecap="round" stroke-linejoin="round"/>
        <path d="M31 15L21 22L11 15" stroke="white" stroke-linecap="round" stroke-linejoin="round"/>
    </svg>
        

    <!-- VIBER -->
    <svg id="viber-o" viewBox="0 0 42 42" fill="none" style="overflow: visible; ">
        <rect width="42" height="42" rx="10" fill="#6F56ED"/>
        <g clip-path="url(#clip0)">
        <path d="M32.1551 22.8926C32.8711 16.8656 31.8111 13.0605 29.8991 11.3395L29.9001 11.3385C26.8141 8.39954 16.3921 7.96453 12.7001 11.4705C11.0421 13.1855 10.4581 15.7026 10.3941 18.8186C10.3301 21.9356 10.2541 27.7746 15.6951 29.3586H15.7001L15.6951 31.7776C15.6951 31.7776 15.6581 32.7576 16.2841 32.9546C17.0001 33.1866 17.3241 32.7316 19.5511 30.0716C23.2751 30.3946 26.1351 29.6546 26.4601 29.5466C27.2121 29.2946 31.4671 28.7316 32.1551 22.8926ZM20.0002 28.9993C20.0002 28.9993 17.5611 31.3086 16.8281 32.0716C16.5881 32.3196 16.3251 32.2966 16.3291 31.8046C16.3291 31.4816 16.0002 28.3696 16.0002 28.3696C11.3872 27.0476 11.4502 21.4196 11.5002 18.8186C11.5502 16.2166 12.0962 13.9343 13.5002 12.4993C16.7392 9.46227 26.6722 9.81127 29.0002 11.9993C31.8462 14.5223 31.0002 22.4993 31.0002 22.4993C30.4152 27.3733 26.6342 28.1586 26.0002 28.3696C25.7292 28.4596 23.1582 29.2103 20.0002 28.9993Z" fill="white"/>
        <path d="M21.2219 13.2988C20.8369 13.2988 20.8369 13.8988 21.2219 13.9038C24.2089 13.9268 26.6689 16.0088 26.6959 19.8278C26.6959 20.2308 27.2859 20.2258 27.2809 19.8228H27.2799C27.2479 15.7078 24.5619 13.3218 21.2219 13.2988Z" fill="white"/>
        <path d="M25.151 19.1932C25.142 19.5912 25.731 19.6102 25.736 19.2072C25.785 16.9381 24.386 15.069 21.7569 14.872C21.3719 14.844 21.3319 15.4491 21.7159 15.4771C23.996 15.6501 25.197 17.2061 25.151 19.1932Z" fill="white"/>
        <path d="M24.5212 21.7741C24.0272 21.4881 23.5242 21.6661 23.3162 21.9471L22.8812 22.5101C22.6602 22.7961 22.2472 22.7581 22.2472 22.7581C19.2332 21.9611 18.4272 18.8071 18.4272 18.8071C18.4272 18.8071 18.3902 18.3801 18.6662 18.1511L19.2102 17.7011C19.4822 17.4851 19.6542 16.9651 19.3772 16.4541C18.6372 15.1171 18.1402 14.6561 17.8872 14.3021C17.6212 13.9691 17.2212 13.8941 16.8052 14.1191H16.7962C15.9312 14.6251 14.9842 15.5721 15.2872 16.5471C15.8042 17.5751 16.7542 20.8521 19.7822 23.3281C21.2052 24.4991 23.4572 25.6991 24.4132 25.9761L24.4222 25.9901C25.3642 26.3041 26.2802 25.3201 26.7692 24.4291V24.4221C26.9862 23.9911 26.9142 23.5831 26.5972 23.3161C26.0352 22.7681 25.1872 22.1631 24.5212 21.7741Z" fill="white"/>
        <path d="M22.1689 17.1037C23.1299 17.1597 23.5959 17.6617 23.6459 18.6927C23.6639 19.0957 24.2489 19.0677 24.2309 18.6647C24.1669 17.3187 23.4649 16.5687 22.2009 16.4987C21.8159 16.4757 21.7799 17.0807 22.1689 17.1037Z" fill="white"/>
        </g>
        <defs>
        <clipPath id="clip0">
        <rect width="24" height="24" fill="white" transform="translate(9 9)"/>
        </clipPath>
        </defs>
    </svg>

    <!-- WHATSAPP -->
    <svg id="whatsapp-o" viewBox="0 0 42 42" fill="none" style="overflow: visible; ">
        <rect x="0.5" y="0.5" width="41" height="41" rx="9.5" fill="#3FB969" stroke="#3FB969"/>
        <path d="M14.293 14.2573L14.293 14.2573C12.4925 16.0388 11.5024 18.4024 11.5 20.9076V20.9104V20.9122L14.293 14.2573ZM14.293 14.2573C16.0907 12.4784 18.4677 11.5001 20.9897 11.5L14.293 14.2573ZM12.7452 25.5186L12.7052 25.7005L11.685 30.3376L16.3856 29.2684L16.561 29.2285L16.7215 29.3094C18.0368 29.9723 19.5053 30.3221 20.9861 30.3227C20.9862 30.3227 20.9862 30.3227 20.9863 30.3227H20.9901C23.5117 30.3227 25.8888 29.3442 27.6869 27.565L27.6869 27.565C29.4893 25.7818 30.4796 23.4214 30.4808 20.9149L12.7452 25.5186ZM12.7452 25.5186L12.6565 25.3549M12.7452 25.5186L12.6565 25.3549M12.6565 25.3549C11.8973 23.953 11.5003 22.4227 11.5 20.9123L12.6565 25.3549ZM27.6753 14.2586C25.8905 12.4804 23.5181 11.5011 20.9899 11.5L27.6753 14.2586ZM27.6753 14.2586C29.4886 16.0654 30.4815 18.4286 30.4808 20.9148L27.6753 14.2586ZM20.9862 29.7617H20.9864H20.9899C25.9078 29.7617 29.9177 25.7979 29.9196 20.9148C29.9205 18.5726 28.9789 16.3495 27.2794 14.656L27.2794 14.6559C25.6009 12.9839 23.3655 12.0619 20.9898 12.061H20.9896C16.0727 12.061 12.064 16.0286 12.061 20.9103V20.9106C12.061 22.4258 12.4872 23.9531 13.2857 25.3301L13.3722 25.28L13.2857 25.3301L13.3404 25.4244L12.5922 28.8245L12.4228 29.5943L13.1914 29.4195L16.6444 28.6341L16.7374 28.6846C18.0349 29.3891 19.5037 29.7611 20.9862 29.7617Z" stroke="white"/>
        <path d="M18.2714 16.541H17.8335C17.681 16.541 17.4335 16.5981 17.2242 16.8259C17.0147 17.0539 16.4243 17.6049 16.4243 18.7255C16.4243 19.8461 17.2433 20.9288 17.3574 21.081C17.4717 21.2329 18.9382 23.606 21.2609 24.5189C23.1913 25.2776 23.5842 25.1267 24.0031 25.0887C24.4221 25.0508 25.3551 24.5378 25.5456 24.0061C25.736 23.4743 25.736 23.0184 25.6789 22.9232C25.6217 22.8282 25.4693 22.7713 25.2408 22.6575C25.0123 22.5435 23.8923 21.9832 23.6828 21.9071C23.4733 21.8312 23.321 21.7932 23.1685 22.0214C23.0161 22.249 22.5674 22.7758 22.434 22.9277C22.3008 23.0799 22.1674 23.0989 21.9388 22.985C21.7103 22.8707 20.9818 22.6259 20.1089 21.8502C19.4294 21.2464 18.9579 20.4764 18.8245 20.2484C18.6913 20.0206 18.8103 19.8973 18.9249 19.7837C19.0276 19.6817 19.1663 19.5423 19.2806 19.4094C19.3947 19.2763 19.4272 19.1814 19.5035 19.0294C19.5797 18.8774 19.5415 18.7444 19.4845 18.6306C19.4272 18.5166 18.9887 17.3903 18.7855 16.9399H18.7856C18.6144 16.5605 18.4342 16.5477 18.2714 16.541Z" fill="white"/>
    </svg>
    
    <!-- VIDEOCALL -->
    <svg id="videocall-o" viewBox="0 0 42 42" fill="none" style="overflow: visible; stroke:var(--stroke)">
        <rect width="42" height="42" rx="10" fill="#3B9CAD"/>
        <path d="M32 16L25 21L32 26V16Z" stroke="white" stroke-linecap="round" stroke-linejoin="round"/>
        <path d="M23 14H12C10.8954 14 10 14.8954 10 16V26C10 27.1046 10.8954 28 12 28H23C24.1046 28 25 27.1046 25 26V16C25 14.8954 24.1046 14 23 14Z" stroke="white" stroke-linecap="round" stroke-linejoin="round"/>
    </svg>
        

    <!-- SKYPE -->

    <svg id="skype-o" viewBox="0 0 42 42" fill="none" style="overflow: visible; ">
        <rect width="42" height="42" rx="10" fill="#289BFF"/>
        <g clip-path="url(#clip0)">
        <path d="M30.4562 23.0035C30.5961 22.3426 30.6669 21.6697 30.6669 21C30.6669 18.4179 29.6613 15.9904 27.8356 14.1645C26.0098 12.3387 23.5822 11.3331 21.0002 11.3331C20.3317 11.3331 19.6588 11.4039 18.9968 11.544C18.2493 11.1875 17.4224 11 16.5917 11C13.5084 11 11 13.5084 11 16.5916C11 17.422 11.1875 18.2488 11.544 18.9968C11.4042 19.6575 11.3334 20.3303 11.3334 21C11.3334 23.5821 12.339 26.0096 14.1647 27.8355C15.9904 29.6612 18.4179 30.6667 21.0002 30.6667C21.6686 30.6667 22.3414 30.5958 23.0032 30.456C23.751 30.8125 24.5779 31 25.4086 31C28.4918 31 31 28.4916 31 25.4086C31 24.5782 30.8125 23.7513 30.4562 23.0035ZM25.4086 29.8281C24.6835 29.8281 23.9918 29.6574 23.3524 29.3205C23.2676 29.2758 23.1738 29.2529 23.0793 29.2529C23.0346 29.2529 22.9897 29.2581 22.9456 29.2684C22.304 29.4187 21.6496 29.4949 21.0002 29.4949C16.316 29.4949 12.5053 25.6841 12.5053 21C12.5053 20.3494 12.5814 19.6949 12.7317 19.0548C12.7639 18.9173 12.7455 18.7728 12.6797 18.6479C12.3426 18.0081 12.1719 17.3162 12.1719 16.5916C12.1719 14.1546 14.1546 12.1719 16.5917 12.1719C17.3168 12.1719 18.0084 12.3426 18.6474 12.6794C18.7724 12.7453 18.9169 12.7638 19.0544 12.7316C19.6961 12.5813 20.3507 12.505 21.0002 12.505C25.6843 12.505 29.495 16.3159 29.495 21C29.495 21.6506 29.4189 22.3052 29.2686 22.9455C29.2362 23.083 29.2547 23.2275 29.3205 23.3524C29.6574 23.9921 29.8281 24.6838 29.8281 25.4086C29.8281 27.8456 27.8456 29.8281 25.4086 29.8281Z" fill="white"/>
        <path d="M21.0001 16.4701C22.7284 16.4701 24.1888 17.3731 24.1888 18.442C24.1888 18.7657 24.4511 19.028 24.7748 19.028C25.0983 19.028 25.3607 18.7657 25.3607 18.442C25.3607 17.5584 24.8766 16.7439 23.9978 16.1483C23.1888 15.6001 22.1242 15.2981 21.0001 15.2981C19.8759 15.2981 18.8113 15.6001 18.0023 16.1483C17.1234 16.7439 16.6394 17.5584 16.6394 18.442C16.6394 19.3257 17.1234 20.1403 18.0023 20.7359C18.8112 21.2841 19.8758 21.5859 21.0001 21.5859C22.7284 21.5859 24.1888 22.489 24.1888 23.558C24.1888 24.6269 22.7284 25.5299 21.0001 25.5299C19.2715 25.5299 17.8113 24.6269 17.8113 23.558C17.8113 23.2343 17.549 22.972 17.2253 22.972C16.9019 22.972 16.6394 23.2343 16.6394 23.558C16.6394 24.4415 17.1234 25.2561 18.0023 25.8517C18.8113 26.3998 19.8759 26.7018 21.0001 26.7018C22.1242 26.7018 23.1888 26.3998 23.9978 25.8517C24.8766 25.2561 25.3607 24.4415 25.3607 23.558C25.3607 22.6742 24.8766 21.8597 23.9978 21.2641C23.1888 20.716 22.1242 20.4141 21.0001 20.4141C19.2715 20.4141 17.8113 19.511 17.8113 18.442C17.8113 17.3731 19.2715 16.4701 21.0001 16.4701Z" fill="white"/>
        </g>
        <defs>
        <clipPath id="clip0">
        <rect width="20" height="20" fill="white" transform="translate(11 11)"/>
        </clipPath>
        </defs>
    </svg>

    <svg id="chat-i" viewBox="0 0 17 15" fill="none" style="overflow: visible; ">
        <path d="M11.0638 3.07641C10.104 1.22442 8.0963 0 5.84427 0C2.62186 0 0.000255889 2.46337 0.000255889 5.49123C0.000255889 6.3141 0.187198 7.1028 0.556167 7.83815L0.00991843 10.4195C-0.059612 10.7481 0.247132 11.0385 0.594917 10.9735L3.36016 10.4569C3.73249 10.6238 4.11766 10.7507 4.51343 10.8382C3.6263 6.86749 6.81115 3.14036 11.0638 3.07641Z" fill="#C8C8CB"/>
        <path d="M16.4441 11.8555C16.5396 11.6653 16.6225 11.4716 16.6935 11.2746H16.6753C17.9187 7.82556 15.3038 4.20059 11.4433 4.02409C11.4433 4.0239 11.4432 4.02371 11.4432 4.02352C8.12152 3.87887 5.36182 6.39216 5.36182 9.50861C5.36182 12.5339 7.96376 14.9954 11.1641 14.9997C12.0322 14.9986 12.8642 14.8221 13.6401 14.4743C16.6686 15.0401 16.4324 14.9998 16.502 14.9998C16.8167 14.9998 17.0518 14.7273 16.9904 14.4369L16.4441 11.8555Z" fill="#C8C8CB"/>
    </svg>


    <svg id="mail-i" viewBox="0 0 18 13" fill="none" style="overflow: visible; ">
        <path d="M17.3568 0H0.642578L8.99973 6.96017L17.4513 0.0194999C17.4204 0.0103594 17.3888 0.00384666 17.3568 0Z" fill="#C8C8CB"/>
        <path d="M9.40562 8.3049C9.16877 8.501 8.82799 8.501 8.59114 8.3049L0 1.14844V12.3505C0 12.7095 0.287816 13.0005 0.642869 13.0005H17.3571C17.7122 13.0005 18 12.7095 18 12.3505V1.24464L9.40562 8.3049Z" fill="#C8C8CB"/>
    </svg>

    <svg id="phone-i" viewBox="0 0 17 15" fill="none" style="overflow: visible; fill:var(--fill)">
        <path d="M16.5542 11.0085L14.1768 8.91518C13.3278 8.16758 11.8843 8.46665 11.5447 9.43851C11.29 10.1114 10.4409 10.4852 9.67676 10.3356C7.97862 9.96183 5.68613 8.01806 5.2616 6.44809C5.00688 5.77522 5.51632 5.02761 6.28048 4.80336C7.38427 4.50432 7.7239 3.23339 6.87483 2.48578L4.49744 0.392492C3.81818 -0.130831 2.7993 -0.130831 2.20495 0.392492L0.591722 1.81294C-1.02151 3.30815 0.761536 7.27045 4.75216 10.7842C8.74278 14.2979 13.2428 15.9427 14.941 14.4475L16.5542 13.027C17.1486 12.4289 17.1486 11.5318 16.5542 11.0085Z" />
    </svg>

    <svg id="messenger-i" viewBox="0 0 15 15" fill="none" style="overflow: visible; ">
        <path d="M7.5 0C3.35812 0 0 3.10875 0 6.94406C0 9.12938 1.09031 11.0784 2.79469 12.3516V15L5.34844 13.5984C6.03 13.7869 6.75187 13.8891 7.5 13.8891C11.6419 13.8891 15 10.7803 15 6.945C15 3.10875 11.6419 0 7.5 0Z" fill="#C8C8CB"/>
        <path d="M8.24514 9.35187L6.33545 7.31469L2.60889 9.35187L6.70764 5L8.6642 7.03719L12.3448 5L8.24514 9.35187Z" fill="white"/>
    </svg>

    <svg id="viber-i" viewBox="0 0 17 15" fill="none" style="overflow: visible; ">
        <g clip-path="url(#clip0)">
        <path d="M16.4011 8.68357C16.9083 4.91669 16.1575 2.53857 14.8032 1.46294L14.8039 1.46232C12.6179 -0.374557 5.23569 -0.646433 2.62052 1.54482C1.44611 2.61669 1.03244 4.18982 0.987107 6.13732C0.941773 8.08545 0.88794 11.7348 4.74198 12.7248H4.74552L4.74198 14.2367C4.74198 14.2367 4.71577 14.8492 5.15919 14.9723C5.66636 15.1173 5.89586 14.8329 7.47331 13.1704C10.1111 13.3723 12.137 12.9098 12.3672 12.8423C12.8999 12.6848 15.9138 12.3329 16.4011 8.68357ZM7.73327 12.1067C7.73327 12.1067 6.06373 13.9436 5.54452 14.4204C5.37452 14.5754 5.18823 14.5611 5.19107 14.2536C5.19107 14.0517 5.20381 11.7436 5.20381 11.7436C1.93627 10.9173 2.12894 7.80982 2.16436 6.1842C2.19977 4.55794 2.53694 3.22607 3.53144 2.32919C5.82573 0.431068 12.2978 0.855443 13.9468 2.22294C15.9627 3.79982 15.2451 8.25482 15.2494 8.4067C14.835 11.4529 12.3927 11.6461 11.9436 11.7779C11.7516 11.8342 9.97019 12.2386 7.73327 12.1067Z" fill="#C8C8CB"/>
        <path d="M8.65717 2.68555C8.38446 2.68555 8.38446 3.06055 8.65717 3.06367C10.773 3.07805 12.5155 4.3793 12.5346 6.76617C12.5346 7.01805 12.9525 7.01492 12.949 6.76305H12.9483C12.9256 4.19117 11.023 2.69992 8.65717 2.68555Z" fill="#C8C8CB"/>
        <path d="M11.4404 6.37124C11.434 6.62 11.8512 6.63188 11.8547 6.37999C11.8894 4.96181 10.8985 3.79364 9.03625 3.67051C8.76354 3.65301 8.7352 4.03115 9.00721 4.04865C10.6222 4.15678 11.4729 5.12932 11.4404 6.37124Z" fill="#C8C8CB"/>
        <path d="M10.9942 7.98406C10.6443 7.80531 10.288 7.91656 10.1407 8.09218L9.83255 8.44406C9.67601 8.62281 9.38347 8.59906 9.38347 8.59906C7.24856 8.10093 6.67764 6.12968 6.67764 6.12968C6.67764 6.12968 6.65144 5.86281 6.84693 5.71968L7.23227 5.43843C7.42493 5.30343 7.54677 4.97843 7.35056 4.65906C6.82639 3.82343 6.47435 3.53531 6.29514 3.31406C6.10673 3.10593 5.8234 3.05906 5.52873 3.19968H5.52236C4.90965 3.51593 4.23886 4.10781 4.45348 4.71718C4.81969 5.35968 5.4926 7.40781 7.63743 8.95531C8.64539 9.68718 10.2405 10.4372 10.9177 10.6103L10.9241 10.6191C11.5913 10.8153 12.2402 10.2003 12.5865 9.64343V9.63906C12.7402 9.36968 12.6892 9.11468 12.4647 8.94781C12.0666 8.60531 11.466 8.22718 10.9942 7.98406Z" fill="#C8C8CB"/>
        <path d="M9.32796 5.06602C10.0087 5.10102 10.3388 5.41477 10.3742 6.05915C10.3869 6.31102 10.8013 6.29352 10.7886 6.04165C10.7432 5.2004 10.246 4.73165 9.35063 4.6879C9.07792 4.67352 9.05241 5.05165 9.32796 5.06602Z" fill="#C8C8CB"/>
        </g>
        <defs>
        <clipPath id="clip0">
        <rect width="17" height="15" fill="white"/>
        </clipPath>
        </defs>
    </svg>

    <svg id="skype-i" viewBox="0 0 10 10" fill="none" style="overflow: visible; ">
        <path d="M9.71208 6.06026C10.4363 2.8061 7.58542 -0.15015 4.2375 0.417349C2.42 -0.710566 0 0.564015 0 2.72651C0 3.22943 0.13875 3.70026 0.38 4.10609C-0.292917 7.36775 2.58125 10.2815 5.92625 9.67525C8.29083 10.9257 10.9038 8.43192 9.71208 6.06026ZM6.52958 8.02275C5.65125 8.384 4.20583 8.38609 3.33125 7.92817C2.08417 7.26317 1.8625 5.76609 2.93833 5.76609C3.74917 5.76609 3.4925 6.7115 4.31125 7.09692C4.68708 7.27067 5.495 7.28859 5.96458 6.97192C6.42833 6.66151 6.38583 6.17317 6.13375 5.93984C5.46583 5.32317 3.55458 5.56817 2.68083 4.48859C2.30125 4.02026 2.22958 3.19401 2.69625 2.59485C3.50958 1.54818 5.89625 1.48443 6.9225 2.27485C7.87 3.00818 7.61417 3.98151 6.84958 3.98151C5.93 3.98151 6.41333 2.77818 4.92875 2.77818C3.8525 2.77818 3.42917 3.54359 4.18708 3.91609C5.21458 4.42651 7.83292 4.25609 7.83292 6.25067C7.83083 7.08067 7.32208 7.69942 6.52958 8.02275Z" fill="#C8C8CB"/>
    </svg>


        
</svg>